<svg width="195" height="40" viewBox="0 0 195 40" fill="none" xmlns="http://www.w3.org/2000/svg">
<path d="M30.9752 19.2284C29.9888 19.1624 29.0019 19.1012 28.0162 19.0281C27.3745 18.9806 26.7309 18.9425 26.0947 18.8526C24.5808 18.6386 23.2864 17.9592 22.2014 16.8938C20.7291 15.4478 19.948 13.672 19.7564 11.6272C19.6586 10.5841 19.5482 9.54187 19.4709 8.49727C19.375 7.20212 19.6664 5.99454 20.3741 4.89731C21.2294 3.57153 22.3541 2.58112 23.8594 2.03761C24.5164 1.80041 25.1738 1.81966 25.841 1.90134C28.1658 2.18644 30.1753 3.1529 31.8875 4.73983C33.4356 6.1744 34.4853 7.92666 35.1552 9.91848C35.5605 11.1241 35.9033 12.3466 36.1276 13.5985C36.5038 15.6972 35.4741 17.8594 33.6406 18.7686C33.0786 19.047 32.4836 19.1876 31.8561 19.1887C31.5635 19.1895 31.2706 19.1887 30.978 19.1887C30.9772 19.2021 30.976 19.2151 30.9752 19.2284Z" fill="url(#paint0_linear_9822_57039)"/>
<path d="M24.5779 1.83093C24.0415 2.02414 23.5306 2.2468 23.0593 2.55155C21.5482 3.529 20.5452 4.89405 19.975 6.59212C19.697 7.41995 19.5701 8.27291 19.4904 9.13883C19.3875 10.2612 19.3412 11.3973 19.1275 12.4996C18.5946 15.2486 17.1 17.2938 14.4889 18.4382C13.7659 18.7551 12.9977 18.8914 12.2123 18.9491C11.2097 19.0225 10.2091 19.1262 9.20575 19.1839C8.56367 19.2208 7.91806 19.1949 7.27441 19.2039C6.1387 19.22 5.15928 18.8332 4.3342 18.0596C3.49067 17.2683 3.01981 16.2838 2.85134 15.1461C2.72724 14.3069 2.88118 13.4948 3.07282 12.6838C3.39327 11.3266 3.76163 9.98316 4.3287 8.70646C5.46952 6.13658 7.25635 4.16244 9.78931 2.90027C11.2215 2.18672 12.7444 1.83328 14.3447 1.83171C17.6985 1.82857 21.0526 1.83093 24.4063 1.83093H24.5783H24.5779Z" fill="#E98129"/>
<path d="M31.2516 20.1086C32.0182 20.0701 32.7855 20.0461 33.5179 20.3375C34.9195 20.8952 35.7948 21.9355 36.2468 23.3496C36.55 24.2976 36.5096 25.2527 36.2885 26.2156C35.9468 27.7043 35.5612 29.1801 34.9407 30.5798C33.849 33.042 32.1493 34.96 29.7589 36.2336C28.2984 37.0115 26.7351 37.4176 25.0786 37.4341C24.5987 37.4388 24.1506 37.2605 23.7159 37.0732C22.2511 36.4417 21.1841 35.3739 20.416 33.9979C19.8108 32.914 19.6329 31.739 19.7476 30.513C19.8391 29.5332 19.9098 28.551 20.028 27.5748C20.3979 24.5207 21.8462 22.2064 24.7 20.8861C25.5118 20.5107 26.384 20.3792 27.2711 20.3199C28.1677 20.2598 29.0626 20.1691 29.9592 20.1129C30.3884 20.0862 30.8208 20.1082 31.2516 20.1082V20.1086Z" fill="url(#paint1_linear_9822_57039)"/>
<path d="M24.5543 37.4374C24.4982 37.4374 24.4424 37.4374 24.3863 37.4374C21.0325 37.4374 17.6792 37.4413 14.3255 37.4358C12.2645 37.4327 10.3709 36.8491 8.65005 35.7236C6.39041 34.2462 4.87338 32.1869 3.96544 29.6618C3.4879 28.334 3.10226 26.9788 2.86978 25.5874C2.50927 23.4279 3.63124 21.2425 5.54609 20.4037C6.05975 20.1786 6.59737 20.0671 7.15776 20.0651C7.51984 20.064 7.88231 20.0494 8.2436 20.0679C9.22066 20.1174 10.1973 20.1743 11.1732 20.2426C11.7776 20.2851 12.3843 20.3255 12.9828 20.4154C14.4197 20.631 15.6587 21.2723 16.71 22.2659C18.1281 23.6058 18.9457 25.2634 19.2021 27.1889C19.3325 28.1687 19.4165 29.1559 19.4876 30.1424C19.594 31.6182 19.9412 33.0257 20.7105 34.2945C21.5976 35.7585 22.8221 36.8409 24.4797 37.3781C24.5072 37.3871 24.5327 37.4016 24.5595 37.4134C24.5579 37.4213 24.5563 37.4291 24.5547 37.4366L24.5543 37.4374Z" fill="#E98129"/>
<path d="M42.3848 21.6458C42.3848 15.7417 46.041 11.8146 51.9452 11.8146C55.3035 11.8146 57.8764 13.0875 59.6098 15.2542L56.8473 17.15C55.7098 15.7417 54.0848 14.9292 51.9452 14.9292C48.0452 14.9292 45.7702 17.5292 45.7702 21.6458C45.7702 25.7625 48.0452 28.3625 51.9452 28.3625C54.0848 28.3625 55.7098 27.55 56.8473 26.1417L59.6098 28.0375C57.8764 30.2042 55.3035 31.4771 51.9452 31.4771C46.041 31.4771 42.3848 27.55 42.3848 21.6458ZM64.0789 12.1667V18.5312C64.8644 17.8 65.9748 17.3396 67.4914 17.3396C71.5269 17.3396 73.2873 20.6979 73.2873 23.0542V31.125H70.0373V23.1354C70.0373 21.2125 68.6289 20.3458 67.0581 20.3458C65.4873 20.3458 64.0789 21.2125 64.0789 23.1354V31.125H60.8289V12.1667H64.0789ZM74.8996 23.5417C74.8996 19.425 77.4996 17.3396 81.6162 17.3396V20.3187C79.4496 20.3187 78.1496 21.375 78.1496 23.5417V31.125H74.8996V23.5417ZM82.6981 13.6562C82.6981 12.6812 83.4835 11.8688 84.4856 11.8688C85.4877 11.8688 86.2731 12.6812 86.2731 13.6562C86.2731 14.6854 85.4877 15.4708 84.4856 15.4708C83.4835 15.4708 82.6981 14.6854 82.6981 13.6562ZM82.8606 31.125V17.5833H86.1106V31.125H82.8606ZM90.7875 21.2396C90.7875 23.2167 98.1542 21.9708 98.1542 27.0354C98.1542 29.7979 95.9605 31.2875 92.873 31.2875C90.0021 31.2875 88.1605 29.9875 87.3209 29.2292L89.0542 26.6833C90.1917 27.7667 91.6271 28.3083 92.9542 28.3083C94.0646 28.3083 94.9042 27.9292 94.9042 27.1438C94.9042 24.8146 87.5375 26.25 87.5375 21.2938C87.5375 18.8021 89.4063 17.3667 92.4667 17.3667C95.148 17.3667 96.9084 18.45 98.1 19.425L96.3667 21.9437C94.9313 20.7521 93.523 20.3458 92.4125 20.3458C91.3563 20.3458 90.7875 20.6979 90.7875 21.2396ZM99.3916 12.1667H102.642V18.9104C103.292 18.0708 104.673 17.3667 106.623 17.3667C110.577 17.3667 113.394 20.1833 113.394 24.3812C113.394 28.5521 110.577 31.3417 106.46 31.3417C102.506 31.3417 99.3916 28.7417 99.3916 24.3812V12.1667ZM110.144 24.3542C110.144 21.8354 108.654 20.3458 106.379 20.3458C104.131 20.3458 102.642 21.8354 102.642 24.3542C102.642 26.8729 104.131 28.3625 106.379 28.3625C108.654 28.3625 110.144 26.8729 110.144 24.3542ZM114.511 24.3542C114.511 20.1833 117.327 17.3937 121.525 17.3937C125.723 17.3937 128.513 20.1833 128.513 24.3542C128.513 28.5521 125.723 31.3688 121.525 31.3688C117.327 31.3688 114.511 28.5521 114.511 24.3542ZM117.761 24.3812C117.761 26.9 119.25 28.3896 121.498 28.3896C123.773 28.3896 125.263 26.9 125.263 24.3812C125.263 21.8625 123.773 20.3729 121.498 20.3729C119.25 20.3729 117.761 21.8625 117.761 24.3812ZM129.754 23.5417C129.754 19.425 132.354 17.3396 136.471 17.3396V20.3187C134.304 20.3187 133.004 21.375 133.004 23.5417V31.125H129.754V23.5417ZM136.648 24.3542C136.648 20.1833 139.465 17.3937 143.663 17.3937C147.861 17.3937 150.65 20.1833 150.65 24.3542C150.65 28.5521 147.861 31.3688 143.663 31.3688C139.465 31.3688 136.648 28.5521 136.648 24.3542ZM139.898 24.3812C139.898 26.9 141.388 28.3896 143.636 28.3896C145.911 28.3896 147.4 26.9 147.4 24.3812C147.4 21.8625 145.911 20.3729 143.636 20.3729C141.388 20.3729 139.898 21.8625 139.898 24.3812ZM158.121 31.3688C153.652 31.3688 151.891 28.0104 151.891 25.6542V17.5833H155.141V25.5729C155.141 27.4688 156.55 28.3625 158.121 28.3625C159.691 28.3625 161.1 27.4688 161.1 25.5729V17.5833H164.35V25.6542C164.35 28.0104 162.589 31.3688 158.121 31.3688ZM179.558 24.3812V30.5833C179.558 34.1583 176.877 36.7042 172.787 36.7042C170.052 36.7042 167.858 35.5396 166.449 33.7521L169.104 31.8833C169.835 32.7771 170.945 33.725 172.814 33.725C175.062 33.725 176.308 32.3979 176.308 30.5833V29.7979C175.658 30.6375 174.277 31.3417 172.299 31.3417C168.372 31.3417 165.556 28.525 165.556 24.3271C165.556 20.1562 168.372 17.3667 172.543 17.3667C176.741 17.3667 179.558 20.1833 179.558 24.3812ZM176.308 24.3542C176.308 21.8354 174.818 20.3458 172.57 20.3458C170.295 20.3458 168.806 21.8354 168.806 24.3542C168.806 26.8729 170.295 28.3625 172.57 28.3625C174.818 28.3625 176.308 26.8729 176.308 24.3542ZM184.42 12.1667V18.5312C185.205 17.8 186.316 17.3396 187.832 17.3396C191.868 17.3396 193.628 20.6979 193.628 23.0542V31.125H190.378V23.1354C190.378 21.2125 188.97 20.3458 187.399 20.3458C185.828 20.3458 184.42 21.2125 184.42 23.1354V31.125H181.17V12.1667H184.42Z" fill="#09090B"/>
<defs>
<linearGradient id="paint0_linear_9822_57039" x1="30.3944" y1="19.9007" x2="24.322" y2="1.855" gradientUnits="userSpaceOnUse">
<stop offset="0.3" stop-color="#E98129"/>
<stop offset="0.71" stop-color="#E9702A"/>
<stop offset="1" stop-color="#EA622B"/>
</linearGradient>
<linearGradient id="paint1_linear_9822_57039" x1="33.5431" y1="19.0475" x2="23.3322" y2="34.6596" gradientUnits="userSpaceOnUse">
<stop offset="0.41" stop-color="#E98129"/>
<stop offset="0.76" stop-color="#E9702A"/>
<stop offset="1" stop-color="#EA622B"/>
</linearGradient>
</defs>
</svg>
